<svg width="30" height="32" viewBox="0 0 30 32" fill="none" xmlns="http://www.w3.org/2000/svg">
<g filter="url(#filter0_d_1_28)">
<path d="M18.75 3.56V2C18.75 1.59 18.41 1.25 18 1.25C17.59 1.25 17.25 1.59 17.25 2V3.5H10.75V2C10.75 1.59 10.41 1.25 9.99999 1.25C9.58999 1.25 9.24999 1.59 9.24999 2V3.56C6.54999 3.81 5.23999 5.42 5.03999 7.81C5.01999 8.1 5.25999 8.34 5.53999 8.34H22.46C22.75 8.34 22.99 8.09 22.96 7.81C22.76 5.42 21.45 3.81 18.75 3.56Z" stroke="black"/>
<path d="M21 15C18.79 15 17 16.79 17 19C17 19.75 17.21 20.46 17.58 21.06C18.27 22.22 19.54 23 21 23C22.46 23 23.73 22.22 24.42 21.06C24.79 20.46 25 19.75 25 19C25 16.79 23.21 15 21 15ZM23.07 18.57L20.94 20.54C20.8 20.67 20.61 20.74 20.43 20.74C20.24 20.74 20.05 20.67 19.9 20.52L18.91 19.53C18.62 19.24 18.62 18.76 18.91 18.47C19.2 18.18 19.68 18.18 19.97 18.47L20.45 18.95L22.05 17.47C22.35 17.19 22.83 17.21 23.11 17.51C23.39 17.81 23.37 18.28 23.07 18.57Z" stroke="black"/>
<path d="M22 9.84H6C5.45 9.84 5 10.29 5 10.84V17C5 20 6.5 22 10 22H14.93C15.62 22 16.1 21.33 15.88 20.68C15.68 20.1 15.51 19.46 15.51 19C15.51 15.97 17.98 13.5 21.01 13.5C21.3 13.5 21.59 13.52 21.87 13.57C22.47 13.66 23.01 13.19 23.01 12.59V10.85C23 10.29 22.55 9.84 22 9.84ZM11.21 18.21C11.02 18.39 10.76 18.5 10.5 18.5C10.24 18.5 9.98 18.39 9.79 18.21C9.61 18.02 9.5 17.76 9.5 17.5C9.5 17.24 9.61 16.98 9.79 16.79C9.89 16.7 9.99 16.63 10.12 16.58C10.49 16.42 10.93 16.51 11.21 16.79C11.39 16.98 11.5 17.24 11.5 17.5C11.5 17.76 11.39 18.02 11.21 18.21ZM11.21 14.71C11.16 14.75 11.11 14.79 11.06 14.83C11 14.87 10.94 14.9 10.88 14.92C10.82 14.95 10.76 14.97 10.7 14.98C10.63 14.99 10.56 15 10.5 15C10.24 15 9.98 14.89 9.79 14.71C9.61 14.52 9.5 14.26 9.5 14C9.5 13.74 9.61 13.48 9.79 13.29C10.02 13.06 10.37 12.95 10.7 13.02C10.76 13.03 10.82 13.05 10.88 13.08C10.94 13.1 11 13.13 11.06 13.17C11.11 13.21 11.16 13.25 11.21 13.29C11.39 13.48 11.5 13.74 11.5 14C11.5 14.26 11.39 14.52 11.21 14.71ZM14.71 14.71C14.52 14.89 14.26 15 14 15C13.74 15 13.48 14.89 13.29 14.71C13.11 14.52 13 14.26 13 14C13 13.74 13.11 13.48 13.29 13.29C13.67 12.92 14.34 12.92 14.71 13.29C14.89 13.48 15 13.74 15 14C15 14.26 14.89 14.52 14.71 14.71Z" stroke="black"/>
</g>
<defs>
<filter id="filter0_d_1_28" x="-2" y="0" width="32" height="32" filterUnits="userSpaceOnUse" color-interpolation-filters="sRGB">
<feFlood flood-opacity="0" result="BackgroundImageFix"/>
<feColorMatrix in="SourceAlpha" type="matrix" values="0 0 0 0 0 0 0 0 0 0 0 0 0 0 0 0 0 0 127 0" result="hardAlpha"/>
<feOffset dy="4"/>
<feGaussianBlur stdDeviation="2"/>
<feComposite in2="hardAlpha" operator="out"/>
<feColorMatrix type="matrix" values="0 0 0 0 0 0 0 0 0 0 0 0 0 0 0 0 0 0 0.25 0"/>
<feBlend mode="normal" in2="BackgroundImageFix" result="effect1_dropShadow_1_28"/>
<feBlend mode="normal" in="SourceGraphic" in2="effect1_dropShadow_1_28" result="shape"/>
</filter>
</defs>
</svg>
