<svg width="30" height="31" viewBox="0 0 30 31" fill="none" xmlns="http://www.w3.org/2000/svg">
<g filter="url(#filter0_dd_1_68)">
<path d="M15.0001 2.24994C13.0718 2.24994 11.1867 2.82177 9.58332 3.89311C7.97994 4.96445 6.73026 6.4872 5.9923 8.26878C5.25435 10.0504 5.06126 12.0108 5.43747 13.9021C5.81368 15.7934 6.74227 17.5307 8.10584 18.8942C9.4694 20.2578 11.2067 21.1864 13.098 21.5626C14.9893 21.9388 16.9497 21.7457 18.7313 21.0078C20.5129 20.2698 22.0356 19.0201 23.107 17.4167C24.1783 15.8134 24.7501 13.9283 24.7501 11.9999C24.7472 9.41498 23.719 6.93672 21.8912 5.10888C20.0633 3.28103 17.5851 2.25286 15.0001 2.24994V2.24994ZM15.0002 18C14.7777 18 14.5602 17.934 14.3752 17.8104C14.1902 17.6868 14.046 17.5111 13.9608 17.3055C13.8757 17.0999 13.8534 16.8737 13.8968 16.6555C13.9402 16.4373 14.0473 16.2368 14.2047 16.0795C14.362 15.9221 14.5625 15.815 14.7807 15.7716C14.9989 15.7282 15.2251 15.7505 15.4307 15.8356C15.6363 15.9208 15.812 16.065 15.9356 16.25C16.0592 16.435 16.1252 16.6525 16.1252 16.875C16.1252 17.1733 16.0067 17.4595 15.7957 17.6705C15.5847 17.8814 15.2985 18 15.0002 18ZM15.7501 13.4164V13.5004C15.7501 13.6993 15.6711 13.8901 15.5305 14.0307C15.3898 14.1714 15.199 14.2504 15.0001 14.2504C14.8012 14.2504 14.6105 14.1714 14.4698 14.0307C14.3291 13.8901 14.2501 13.6993 14.2501 13.5004V12.7504C14.2501 12.5515 14.3292 12.3607 14.4698 12.2201C14.6105 12.0794 14.8012 12.0004 15.0001 12.0004C15.371 12.0004 15.7335 11.8904 16.0418 11.6844C16.3502 11.4784 16.5905 11.1855 16.7324 10.8429C16.8743 10.5003 16.9115 10.1233 16.8391 9.7596C16.7668 9.39589 16.5882 9.06179 16.326 8.79957C16.0637 8.53735 15.7296 8.35877 15.3659 8.28642C15.0022 8.21408 14.6252 8.25121 14.2826 8.39312C13.94 8.53504 13.6472 8.77536 13.4411 9.0837C13.2351 9.39204 13.1251 9.75456 13.1251 10.1254C13.1251 10.3243 13.0461 10.5151 12.9055 10.6557C12.7648 10.7964 12.574 10.8754 12.3751 10.8754C12.1762 10.8754 11.9855 10.7964 11.8448 10.6557C11.7041 10.5151 11.6251 10.3243 11.6251 10.1254C11.6252 9.49008 11.8046 8.86768 12.1427 8.32979C12.4808 7.7919 12.9638 7.36036 13.5363 7.08481C14.1088 6.80925 14.7474 6.70087 15.3787 6.77213C16.01 6.84338 16.6084 7.09138 17.105 7.48761C17.6016 7.88383 17.9763 8.41218 18.186 9.0119C18.3957 9.61162 18.4318 10.2583 18.2903 10.8777C18.1488 11.4971 17.8353 12.0639 17.3859 12.513C16.9366 12.9621 16.3696 13.2753 15.7501 13.4164Z" stroke="black"/>
</g>
<defs>
<filter id="filter0_dd_1_68" x="-1" y="0" width="32" height="32" filterUnits="userSpaceOnUse" color-interpolation-filters="sRGB">
<feFlood flood-opacity="0" result="BackgroundImageFix"/>
<feColorMatrix in="SourceAlpha" type="matrix" values="0 0 0 0 0 0 0 0 0 0 0 0 0 0 0 0 0 0 127 0" result="hardAlpha"/>
<feOffset dy="4"/>
<feGaussianBlur stdDeviation="2"/>
<feComposite in2="hardAlpha" operator="out"/>
<feColorMatrix type="matrix" values="0 0 0 0 0 0 0 0 0 0 0 0 0 0 0 0 0 0 0.25 0"/>
<feBlend mode="normal" in2="BackgroundImageFix" result="effect1_dropShadow_1_68"/>
<feColorMatrix in="SourceAlpha" type="matrix" values="0 0 0 0 0 0 0 0 0 0 0 0 0 0 0 0 0 0 127 0" result="hardAlpha"/>
<feOffset dy="4"/>
<feGaussianBlur stdDeviation="2"/>
<feComposite in2="hardAlpha" operator="out"/>
<feColorMatrix type="matrix" values="0 0 0 0 0 0 0 0 0 0 0 0 0 0 0 0 0 0 0.25 0"/>
<feBlend mode="normal" in2="effect1_dropShadow_1_68" result="effect2_dropShadow_1_68"/>
<feBlend mode="normal" in="SourceGraphic" in2="effect2_dropShadow_1_68" result="shape"/>
</filter>
</defs>
</svg>
